<svg width="175" height="36" viewBox="0 0 175 36" fill="none" xmlns="http://www.w3.org/2000/svg">
<path d="M8.072 25.88H25.112C25.304 24.968 25.4 24.008 25.4 23C25.4 15.752 20.216 10.328 13.208 10.328C5.624 10.328 0.440002 15.848 0.440002 23C0.440002 30.152 5.528 35.672 13.736 35.672C18.296 35.672 21.848 33.992 24.2 30.728L18.44 27.416C17.48 28.472 15.8 29.24 13.832 29.24C11.192 29.24 8.984 28.376 8.072 25.88ZM7.928 20.504C8.6 18.056 10.424 16.712 13.16 16.712C15.32 16.712 17.48 17.72 18.248 20.504H7.928Z" fill="#0A100D"/>
<path d="M34.5943 28.28L43.6663 15.8V11H25.4263V17.72H34.0183L24.9463 30.2V35H44.1463V28.28H34.5943Z" fill="#0A100D"/>
<path d="M62.5115 35.528C72.2075 35.528 79.8395 27.8 79.8395 18.2C79.8395 8.6 72.2075 0.871998 62.5115 0.871998C52.8155 0.871998 45.1835 8.6 45.1835 18.2C45.1835 27.8 52.8155 35.528 62.5115 35.528ZM62.5115 33.08C54.2075 33.08 47.7275 26.456 47.7275 18.2C47.7275 9.944 54.2075 3.32 62.5115 3.32C70.8155 3.32 77.2955 9.944 77.2955 18.2C77.2955 26.456 70.8155 33.08 62.5115 33.08Z" fill="#0A100D"/>
<path d="M85.331 15.704V11H82.931V35H85.331V21.656C85.331 15.512 89.219 12.968 93.347 12.968V10.664C90.083 10.664 86.963 11.912 85.331 15.704Z" fill="#0A100D"/>
<path d="M115.047 1.4V16.568C113.079 12.872 109.383 10.472 104.727 10.472C97.8631 10.472 92.2951 15.896 92.2951 23C92.2951 30.104 97.8631 35.528 104.727 35.528C109.383 35.528 113.079 33.128 115.047 29.432V35H117.447V1.4H115.047ZM104.871 33.224C99.1591 33.224 94.6951 28.712 94.6951 23C94.6951 17.288 99.1591 12.776 104.871 12.776C110.583 12.776 115.047 17.288 115.047 23C115.047 28.712 110.583 33.224 104.871 33.224Z" fill="#0A100D"/>
<path d="M132.737 10.472C125.393 10.472 120.305 15.944 120.305 23C120.305 30.248 125.537 35.528 132.929 35.528C137.681 35.528 141.425 33.368 143.393 30.104L141.281 28.856C139.889 31.4 136.913 33.224 132.977 33.224C127.505 33.224 123.377 29.672 122.801 24.248H144.545C144.545 23.864 144.593 23.48 144.593 23.096C144.593 16.52 140.033 10.472 132.737 10.472ZM132.737 12.776C137.441 12.776 141.569 16.04 142.097 21.896H122.801C123.281 16.568 127.265 12.776 132.737 12.776Z" fill="#0A100D"/>
<path d="M149.722 15.704V11H147.322V35H149.722V21.656C149.722 15.512 153.61 12.968 157.738 12.968V10.664C154.474 10.664 151.354 11.912 149.722 15.704Z" fill="#0A100D"/>
<path d="M160.418 17.288C160.418 14.408 163.058 12.776 166.178 12.776C168.818 12.776 171.314 13.928 172.322 16.424L174.338 15.272C173.042 12.344 170.066 10.472 166.178 10.472C161.282 10.472 158.018 13.496 158.018 17.288C158.018 25.928 172.562 22.184 172.562 28.712C172.562 31.736 169.73 33.224 166.37 33.224C162.77 33.224 160.178 31.592 159.314 29L157.25 30.2C158.402 33.272 161.57 35.528 166.37 35.528C171.506 35.528 174.962 32.648 174.962 28.712C174.962 19.928 160.418 23.72 160.418 17.288Z" fill="#0A100D"/>
</svg>
